<svg width="208" height="57" viewBox="0 0 208 57" fill="none" xmlns="http://www.w3.org/2000/svg">
<path d="M74.4375 7.75C73.5417 9.0625 72.5417 10.6354 71.4375 12.4688C70.3333 14.3021 69.1562 16.3542 67.9062 18.625C66.8438 20.5208 65.7917 22.5417 64.75 24.6875C63.7292 26.8125 62.75 28.9271 61.8125 31.0312C60.875 33.1146 60.0104 35.125 59.2188 37.0625C58.4271 38.9792 57.7396 40.6771 57.1562 42.1562C56.5729 43.6146 56.1146 44.7917 55.7812 45.6875C55.4479 46.5625 55.2812 47.0104 55.2812 47.0312C55.0729 47.5521 54.6979 47.8125 54.1562 47.8125C53.8854 47.8125 53.6458 47.7292 53.4375 47.5625C53.2292 47.375 53.0938 47.1458 53.0312 46.875C53.0312 46.8542 52.9271 46.4167 52.7188 45.5625C52.5312 44.6875 52.2708 43.5312 51.9375 42.0938C51.6042 40.6354 51.2188 38.9688 50.7812 37.0938C50.3646 35.1979 49.9167 33.2292 49.4375 31.1875C48.9792 29.125 48.5104 27.0417 48.0312 24.9375C47.5521 22.8333 47.1042 20.8333 46.6875 18.9375C45.2917 22.875 43.8854 26.3646 42.4688 29.4062C41.0729 32.4271 39.6354 35.0625 38.1562 37.3125C36.6771 39.5417 35.1458 41.4167 33.5625 42.9375C32 44.4583 30.3542 45.6875 28.625 46.625C26.9167 47.5417 25.1146 48.1979 23.2188 48.5938C21.3438 48.9896 19.3542 49.1875 17.25 49.1875C16.1667 49.1875 15.0104 49.0625 13.7812 48.8125C12.5521 48.5833 11.3333 48.2188 10.125 47.7188C8.91667 47.2188 7.76042 46.5938 6.65625 45.8438C5.55208 45.0938 4.57292 44.2083 3.71875 43.1875C2.86458 42.1458 2.1875 40.9792 1.6875 39.6875C1.1875 38.375 0.9375 36.9167 0.9375 35.3125C0.9375 33.625 1.29167 32.0833 2 30.6875C2.70833 29.2708 3.66667 28.0625 4.875 27.0625C6.08333 26.0417 7.47917 25.25 9.0625 24.6875C10.6667 24.125 12.3542 23.8438 14.125 23.8438C15.4167 23.8438 16.5729 23.9583 17.5938 24.1875C18.6354 24.3958 19.5521 24.6667 20.3438 25C21.1354 25.3333 21.8125 25.6979 22.375 26.0938C22.9375 26.4896 23.4062 26.8542 23.7812 27.1875C24.1562 27.5208 24.4271 27.8125 24.5938 28.0625C24.7604 28.2917 24.8542 28.4062 24.875 28.4062C25 28.6354 25.0625 28.8542 25.0625 29.0625C25.0625 29.3542 24.9479 29.625 24.7188 29.875C24.5104 30.125 24.2292 30.25 23.875 30.25C23.4583 30.25 23.125 30.0729 22.875 29.7188C22.8542 29.6979 22.6875 29.5104 22.375 29.1562C22.0625 28.7812 21.5521 28.375 20.8438 27.9375C20.1354 27.5 19.2188 27.1042 18.0938 26.75C16.9896 26.3958 15.6354 26.2188 14.0312 26.2188C12.5729 26.2188 11.1875 26.4479 9.875 26.9062C8.58333 27.3438 7.44792 27.9688 6.46875 28.7812C5.51042 29.5938 4.73958 30.5625 4.15625 31.6875C3.59375 32.7917 3.3125 34.0104 3.3125 35.3438C3.3125 36.6562 3.53125 37.8542 3.96875 38.9375C4.40625 40.0208 4.98958 40.9896 5.71875 41.8438C6.44792 42.6979 7.29167 43.4375 8.25 44.0625C9.20833 44.6875 10.2083 45.2083 11.25 45.625C12.2917 46.0208 13.3333 46.3229 14.375 46.5312C15.4375 46.7188 16.4375 46.8125 17.375 46.8125C18.9583 46.8125 20.5 46.6979 22 46.4688C23.5208 46.2188 25.0104 45.7604 26.4688 45.0938C27.9479 44.4271 29.3958 43.5104 30.8125 42.3438C32.2292 41.1771 33.6354 39.6562 35.0312 37.7812C36.4271 35.9062 37.8021 33.6458 39.1562 31C40.5312 28.3542 41.9062 25.2292 43.2812 21.625C43.6979 20.5417 44.1042 19.375 44.5 18.125C44.8958 16.875 45.3021 15.6146 45.7188 14.3438C45.3646 12.5104 45.1042 10.9479 44.9375 9.65625C44.7917 8.36458 44.7188 7.29167 44.7188 6.4375C44.7188 5.52083 44.7917 4.79167 44.9375 4.25C45.0833 3.70833 45.2708 3.30208 45.5 3.03125C45.7292 2.73958 45.9792 2.5625 46.25 2.5C46.5208 2.41667 46.7812 2.375 47.0312 2.375C47.2396 2.375 47.4688 2.41667 47.7188 2.5C47.9896 2.58333 48.2292 2.77083 48.4375 3.0625C48.6667 3.33333 48.8542 3.73958 49 4.28125C49.1458 4.82292 49.2188 5.55208 49.2188 6.46875C49.2188 7.46875 49.125 8.625 48.9375 9.9375C48.75 11.25 48.4688 12.6979 48.0938 14.2812C48.3646 15.5521 48.6771 16.9688 49.0312 18.5312C49.3854 20.0938 49.75 21.7188 50.125 23.4062C50.5 25.0729 50.8854 26.7812 51.2812 28.5312C51.6771 30.2812 52.0625 31.9896 52.4375 33.6562C52.8125 35.3229 53.1667 36.9167 53.5 38.4375C53.8542 39.9583 54.1771 41.3333 54.4688 42.5625C55.0312 41.1458 55.7188 39.4375 56.5312 37.4375C57.3438 35.4167 58.25 33.2812 59.25 31.0312C60.25 28.7604 61.3021 26.4583 62.4062 24.125C63.5312 21.7708 64.6771 19.5521 65.8438 17.4688C67.4896 14.5104 69 11.9792 70.375 9.875C71.75 7.75 72.9375 6 73.9375 4.625C74.9375 3.25 75.7188 2.23958 76.2812 1.59375C76.8646 0.927083 77.1771 0.5625 77.2188 0.5C77.4479 0.270833 77.7292 0.15625 78.0625 0.15625C78.4167 0.15625 78.6979 0.28125 78.9062 0.53125C79.1354 0.760417 79.25 1.03125 79.25 1.34375C79.25 1.48958 79.2188 1.63542 79.1562 1.78125C79.1562 1.80208 79.0312 2.11458 78.7812 2.71875C78.5521 3.30208 78.25 4.11458 77.875 5.15625C77.5208 6.17708 77.125 7.38542 76.6875 8.78125C76.25 10.1562 75.8229 11.6458 75.4062 13.25C74.9896 14.8333 74.6146 16.5 74.2812 18.25C73.9688 19.9792 73.7396 21.7083 73.5938 23.4375C73.5312 24.2292 73.4792 25.0625 73.4375 25.9375C73.3958 26.7917 73.375 27.6562 73.375 28.5312C73.375 29.9062 73.4375 31.2917 73.5625 32.6875C73.6875 34.0833 73.8958 35.4271 74.1875 36.7188C74.4792 38.0104 74.875 39.2292 75.375 40.375C75.875 41.5 76.4896 42.4896 77.2188 43.3438C77.9479 44.1979 78.8125 44.8854 79.8125 45.4062C80.8333 45.9271 82.0104 46.2083 83.3438 46.25C83.6771 46.2708 83.9375 46.4167 84.125 46.6875C84.3333 46.9375 84.4375 47.2083 84.4375 47.5C84.4375 47.7917 84.3229 48.0521 84.0938 48.2812C83.8646 48.5104 83.5938 48.625 83.2812 48.625C82.9479 48.625 82.6146 48.5938 82.2812 48.5312C80.7812 48.3229 79.4583 47.8958 78.3125 47.25C77.1667 46.5833 76.1771 45.7708 75.3438 44.8125C74.5104 43.8333 73.8125 42.7292 73.25 41.5C72.7083 40.25 72.2708 38.9167 71.9375 37.5C71.6042 36.0833 71.3646 34.6146 71.2188 33.0938C71.0938 31.5521 71.0312 30 71.0312 28.4375C71.0312 26.5833 71.125 24.7292 71.3125 22.875C71.5 21.0208 71.75 19.2188 72.0625 17.4688C72.375 15.6979 72.7396 13.9896 73.1562 12.3438C73.5729 10.6979 74 9.16667 74.4375 7.75ZM96.625 44.5C95.8958 45.6875 95.0417 46.625 94.0625 47.3125C93.1042 48 92.1354 48.3438 91.1562 48.3438C90.3646 48.3438 89.6562 48.1979 89.0312 47.9062C88.4062 47.6146 87.8646 47.2083 87.4062 46.6875C86.9479 46.1458 86.5938 45.5 86.3438 44.75C86.1146 44 86 43.1562 86 42.2188C86 40.7604 86.1354 39.4688 86.4062 38.3438C86.6979 37.2188 87.0104 36.2812 87.3438 35.5312C87.6771 34.7604 87.9896 34.1771 88.2812 33.7812C88.5729 33.3854 88.7188 33.1875 88.7188 33.1875C88.8229 33.0625 88.9479 32.9688 89.0938 32.9062C89.2604 32.8438 89.4271 32.8125 89.5938 32.8125C89.9271 32.8125 90.1979 32.9375 90.4062 33.1875C90.6354 33.4167 90.75 33.6875 90.75 34C90.75 34.125 90.7188 34.25 90.6562 34.375C90.6146 34.5 90.5625 34.625 90.5 34.75C90.3958 34.9375 90.2292 35.2292 90 35.625C89.7708 36 89.5312 36.5 89.2812 37.125C89.0312 37.75 88.8125 38.4896 88.625 39.3438C88.4375 40.1771 88.3438 41.1354 88.3438 42.2188C88.3438 43.4479 88.5833 44.3854 89.0625 45.0312C89.5625 45.6562 90.2604 45.9688 91.1562 45.9688C91.5312 45.9688 91.9583 45.8542 92.4375 45.625C92.9375 45.375 93.4167 45 93.875 44.5C94.3542 44 94.7708 43.3646 95.125 42.5938C95.4792 41.8229 95.7083 40.9167 95.8125 39.875L96.2812 34.5C96.3229 34.1875 96.4583 33.9271 96.6875 33.7188C96.9167 33.5104 97.1875 33.4062 97.5 33.4062C97.8542 33.4062 98.1354 33.5417 98.3438 33.8125C98.5521 34.0625 98.6562 34.3542 98.6562 34.6875L98.25 39.875C98.2083 40.3125 98.2188 40.8854 98.2812 41.5938C98.3646 42.3021 98.5208 43 98.75 43.6875C98.9792 44.375 99.3229 44.9688 99.7812 45.4688C100.24 45.9479 100.844 46.1875 101.594 46.1875C102.135 46.1875 102.667 46.0521 103.188 45.7812C103.708 45.4896 104.208 45.1146 104.688 44.6562C105.167 44.1979 105.604 43.6875 106 43.125C106.417 42.5417 106.792 41.9583 107.125 41.375C107.479 40.7917 107.781 40.2396 108.031 39.7188C108.281 39.1771 108.49 38.7188 108.656 38.3438C108.76 38.1146 108.906 37.9375 109.094 37.8125C109.281 37.6875 109.49 37.625 109.719 37.625C110.094 37.625 110.385 37.75 110.594 38C110.802 38.25 110.906 38.5208 110.906 38.8125C110.906 38.9792 110.875 39.1354 110.812 39.2812C110.729 39.4479 110.562 39.8021 110.312 40.3438C110.083 40.8646 109.771 41.4688 109.375 42.1562C109 42.8229 108.542 43.5312 108 44.2812C107.458 45.0312 106.854 45.7292 106.188 46.375C105.521 47 104.792 47.5208 104 47.9375C103.229 48.3333 102.396 48.5312 101.5 48.5312C100.271 48.5312 99.25 48.1875 98.4375 47.5C97.625 46.7917 97.0208 45.7917 96.625 44.5ZM112.156 36.4375C112.031 36.7708 111.875 37.1458 111.688 37.5625C111.521 37.9792 111.323 38.4167 111.094 38.875C110.906 39.2292 110.708 39.5104 110.5 39.7188C110.312 39.9062 110.062 40 109.75 40C109.396 40 109.115 39.8958 108.906 39.6875C108.698 39.4583 108.594 39.1979 108.594 38.9062C108.594 38.8021 108.604 38.7188 108.625 38.6562C108.646 38.5729 108.698 38.4479 108.781 38.2812C109.323 37.2396 109.719 36.3333 109.969 35.5625C110.24 34.7708 110.458 33.9479 110.625 33.0938C110.479 32.6146 110.375 32.2083 110.312 31.875C110.25 31.5417 110.219 31.1979 110.219 30.8438C110.219 30.1562 110.365 29.6042 110.656 29.1875C110.948 28.75 111.354 28.5312 111.875 28.5312C112.354 28.5312 112.729 28.7396 113 29.1562C113.292 29.5729 113.438 30.0833 113.438 30.6875C113.438 31.0208 113.406 31.3542 113.344 31.6875C113.281 32.0208 113.198 32.4375 113.094 32.9375C113.573 34.125 114.052 35.1771 114.531 36.0938C115.01 37.0104 115.438 37.8542 115.812 38.625C116.188 39.375 116.49 40.0833 116.719 40.75C116.969 41.4167 117.094 42.0833 117.094 42.75C117.094 43.625 116.917 44.4583 116.562 45.25C116.208 46.0417 115.625 46.7083 114.812 47.25C114.917 47.2708 115.021 47.2812 115.125 47.2812C115.229 47.2812 115.333 47.2812 115.438 47.2812C116.625 47.2812 117.719 47.0104 118.719 46.4688C119.719 45.9271 120.615 45.2292 121.406 44.375C122.219 43.5 122.938 42.5417 123.562 41.5C124.188 40.4375 124.729 39.3854 125.188 38.3438C125.396 37.8646 125.688 37.625 126.062 37.625C126.417 37.625 126.688 37.75 126.875 38C127.083 38.25 127.188 38.5208 127.188 38.8125C127.188 38.9792 127.156 39.1354 127.094 39.2812C126.865 39.8438 126.562 40.4896 126.188 41.2188C125.833 41.9271 125.396 42.6667 124.875 43.4375C124.375 44.1875 123.792 44.9271 123.125 45.6562C122.458 46.3854 121.708 47.0417 120.875 47.625C120.062 48.1875 119.167 48.6354 118.188 48.9688C117.208 49.3229 116.135 49.5 114.969 49.5C113.573 49.5 112.271 49.25 111.062 48.75C109.875 48.2708 108.906 47.4688 108.156 46.3438C108.031 46.1562 107.969 45.9583 107.969 45.75C107.969 45.4375 108.083 45.1667 108.312 44.9375C108.562 44.6875 108.844 44.5625 109.156 44.5625C109.49 44.5625 109.771 44.6771 110 44.9062C110.021 44.9479 110.094 45.0208 110.219 45.125C110.344 45.2083 110.49 45.3125 110.656 45.4375C110.844 45.5417 111.052 45.6354 111.281 45.7188C111.531 45.8021 111.781 45.8438 112.031 45.8438C112.531 45.8438 112.948 45.7396 113.281 45.5312C113.635 45.3229 113.917 45.0729 114.125 44.7812C114.333 44.4688 114.479 44.1458 114.562 43.8125C114.667 43.4583 114.719 43.1562 114.719 42.9062C114.719 42.3854 114.635 41.8646 114.469 41.3438C114.302 40.8229 114.083 40.3021 113.812 39.7812C113.562 39.2604 113.281 38.7292 112.969 38.1875C112.677 37.625 112.406 37.0417 112.156 36.4375ZM130.031 23.4688C130.031 24.2604 129.75 24.9375 129.188 25.5C128.646 26.0417 127.979 26.3125 127.188 26.3125C126.396 26.3125 125.719 26.0417 125.156 25.5C124.615 24.9375 124.344 24.2604 124.344 23.4688C124.344 23.0729 124.417 22.7083 124.562 22.375C124.708 22.0208 124.906 21.7188 125.156 21.4688C125.427 21.1979 125.729 20.9896 126.062 20.8438C126.417 20.6979 126.792 20.625 127.188 20.625C127.583 20.625 127.948 20.6979 128.281 20.8438C128.635 20.9896 128.938 21.1979 129.188 21.4688C129.458 21.7188 129.667 22.0208 129.812 22.375C129.958 22.7083 130.031 23.0729 130.031 23.4688ZM124.969 41.7812C124.969 38.7812 125.156 35.7917 125.531 32.8125C125.573 32.5208 125.698 32.2708 125.906 32.0625C126.135 31.8333 126.427 31.7188 126.781 31.7188C127.094 31.7188 127.354 31.8438 127.562 32.0938C127.771 32.3229 127.875 32.5938 127.875 32.9062C127.875 33.0312 127.844 33.4062 127.781 34.0312C127.74 34.6562 127.677 35.4062 127.594 36.2812C127.531 37.1354 127.469 38.0521 127.406 39.0312C127.365 39.9896 127.344 40.875 127.344 41.6875C127.344 42.7917 127.448 43.6875 127.656 44.375C127.885 45.0417 128.167 45.5625 128.5 45.9375C128.854 46.3125 129.219 46.5625 129.594 46.6875C129.99 46.8125 130.365 46.875 130.719 46.875C131.302 46.875 131.906 46.6667 132.531 46.25C133.156 45.8333 133.792 45.25 134.438 44.5C135.104 43.75 135.771 42.8542 136.438 41.8125C137.104 40.75 137.76 39.5729 138.406 38.2812C138.51 38.0729 138.656 37.9167 138.844 37.8125C139.031 37.6875 139.24 37.625 139.469 37.625C139.802 37.625 140.073 37.75 140.281 38C140.51 38.25 140.625 38.5208 140.625 38.8125C140.625 39.0208 140.583 39.1979 140.5 39.3438C140.25 39.8229 139.938 40.4062 139.562 41.0938C139.188 41.7812 138.76 42.4896 138.281 43.2188C137.802 43.9479 137.271 44.6771 136.688 45.4062C136.125 46.1146 135.521 46.7604 134.875 47.3438C134.229 47.9062 133.552 48.3646 132.844 48.7188C132.135 49.0729 131.417 49.25 130.688 49.25C129.75 49.25 128.927 49.0521 128.219 48.6562C127.51 48.2604 126.906 47.7292 126.406 47.0625C125.927 46.3958 125.562 45.6146 125.312 44.7188C125.083 43.8021 124.969 42.8229 124.969 41.7812ZM128.281 23.4688C128.281 23.1771 128.167 22.9271 127.938 22.7188C127.729 22.4896 127.479 22.375 127.188 22.375C126.896 22.375 126.646 22.4896 126.438 22.7188C126.229 22.9271 126.125 23.1771 126.125 23.4688C126.125 23.7604 126.229 24.0104 126.438 24.2188C126.646 24.4271 126.896 24.5312 127.188 24.5312C127.479 24.5312 127.729 24.4271 127.938 24.2188C128.167 24.0104 128.281 23.7604 128.281 23.4688ZM141.028 45.952C141.028 43.9467 142.009 42.944 143.972 42.944C145.764 42.944 146.66 43.9253 146.66 45.888C146.66 47.808 145.721 48.768 143.844 48.768C141.966 48.768 141.028 47.8293 141.028 45.952Z" fill="#F7F6BB"/>
<path d="M158.228 26.4C158.228 28.096 158.1 29.52 157.844 30.672H158.132C158.58 28.88 159.444 27.472 160.724 26.448C162.036 25.392 163.62 24.864 165.476 24.864C168.004 24.864 169.748 25.504 170.708 26.784C171.668 28.032 172.148 29.92 172.148 32.448C172.148 32.544 172.116 34.176 172.052 37.344C172.02 40.512 172.004 42.528 172.004 43.392C172.004 44.256 172.1 44.896 172.292 45.312C172.516 45.728 173.204 45.936 174.356 45.936L174.452 48.096C174.004 48.288 173.348 48.384 172.484 48.384C170.948 48.384 169.892 48.032 169.316 47.328C168.772 46.624 168.5 45.504 168.5 43.968C168.5 43.904 168.532 42.176 168.596 38.784C168.66 35.392 168.692 33.632 168.692 33.504C168.692 31.648 168.452 30.208 167.972 29.184C167.492 28.128 166.532 27.6 165.092 27.6C163.684 27.6 162.5 28.048 161.54 28.944C160.612 29.84 159.908 31.008 159.428 32.448C158.564 35.232 158.132 38.192 158.132 41.328V48H154.82V25.44L158.228 25.008V26.4ZM178.576 27.984V25.92L182.416 25.44V22.176C182.416 15.552 184.848 12.24 189.712 12.24C190.768 12.24 191.712 12.448 192.544 12.864L192.064 14.976C191.616 14.848 190.944 14.784 190.048 14.784C189.152 14.784 188.4 14.992 187.792 15.408C187.216 15.792 186.8 16.368 186.544 17.136C186.096 18.352 185.872 20.064 185.872 22.272V25.44H192.064V27.984H185.872L185.824 52.464C185.824 53.808 185.744 54.768 185.584 55.344C185.424 55.952 185.056 56.304 184.48 56.4L181.792 55.824C182.272 55.248 182.512 53.904 182.512 51.792L182.416 27.984H178.576ZM206.921 45.6L207.401 47.712C206.217 48.288 204.793 48.576 203.129 48.576C200.761 48.576 199.193 47.936 198.425 46.656C197.657 45.376 197.273 43.344 197.273 40.56V27.984H193.433V25.92L197.273 25.44V20.448L200.729 19.872V25.44H206.921V27.984H200.729V39.504C200.729 42.48 200.985 44.288 201.497 44.928C202.137 45.664 203.001 46.032 204.089 46.032C205.177 46.032 206.121 45.888 206.921 45.6Z" fill="white"/>
</svg>
