<svg width="656" height="148" viewBox="0 0 656 148" fill="none" xmlns="http://www.w3.org/2000/svg">
<circle cx="63" cy="83" r="63" fill="#228061"/>
<path d="M49 111V55L84 83L49 111Z" fill="#FCDC2A"/>
<rect x="188" y="3" width="5" height="143" fill="#D9D9D9"/>
<rect x="299" y="3" width="5" height="143" fill="#D9D9D9"/>
<rect x="521" y="5" width="5" height="143" fill="#F7F6BB"/>
<rect x="429" width="5" height="143" fill="#F7F6BB"/>
<rect x="651" y="2" width="5" height="143" fill="#D9D9D9"/>
<rect width="4" height="127" transform="matrix(-1 0 0 1 248 10)" fill="#F7F6BB"/>
<rect width="4" height="127" transform="matrix(-1 0 0 1 470 12)" fill="#F7F6BB"/>
<rect width="4" height="127" transform="matrix(-1 0 0 1 378 9)" fill="#D9D9D9"/>
<rect width="4" height="127" transform="matrix(-1 0 0 1 600 11)" fill="#F7F6BB"/>
<rect x="207" y="24" width="5" height="100" fill="#F7F6BB"/>
<rect x="337" y="23" width="5" height="100" fill="#D9D9D9"/>
<rect x="559" y="25" width="5" height="100" fill="#F7F6BB"/>
<rect x="318" y="24" width="5" height="100" fill="#D9D9D9"/>
<rect x="540" y="26" width="5" height="100" fill="#F7F6BB"/>
<rect width="4" height="88" transform="matrix(-1 0 0 1 230 29)" fill="#F7F6BB"/>
<rect width="4" height="88" transform="matrix(-1 0 0 1 452 31)" fill="#F7F6BB"/>
<rect width="4" height="88" transform="matrix(-1 0 0 1 360 28)" fill="#D9D9D9"/>
<rect width="4" height="88" transform="matrix(-1 0 0 1 582 30)" fill="#F7F6BB"/>
<rect x="169" y="49" width="5" height="50" fill="#D9D9D9"/>
<rect x="280" y="49" width="5" height="50" fill="#D9D9D9"/>
<rect x="502" y="51" width="5" height="50" fill="#F7F6BB"/>
<rect x="410" y="46" width="5" height="50" fill="#F7F6BB"/>
<rect x="632" y="48" width="5" height="50" fill="#F7F6BB"/>
<rect width="4" height="44" transform="matrix(-1 0 0 1 266 51)" fill="#F7F6BB"/>
<rect width="4" height="44" transform="matrix(-1 0 0 1 488 53)" fill="#F7F6BB"/>
<rect width="4" height="44" transform="matrix(-1 0 0 1 396 48)" fill="#F7F6BB"/>
<rect width="4" height="44" transform="matrix(-1 0 0 1 618 50)" fill="#F7F6BB"/>
</svg>
